<?xml version="1.0" encoding="UTF-8" ?>
<!DOCTYPE svg PUBLIC "-//W3C//DTD SVG 1.1//EN" "http://www.w3.org/Graphics/SVG/1.1/DTD/svg11.dtd">
<svg width="1902pt" height="793pt" viewBox="0 0 1902 793" version="1.1" xmlns="http://www.w3.org/2000/svg">
<g id="#000000ff">
<path fill="#000000" opacity="1.00" d=" M 244.36 30.44 C 316.09 0.51 396.73 -7.13 472.93 7.89 C 510.79 15.33 547.51 28.47 581.58 46.56 C 636.13 75.49 683.65 117.49 719.29 167.90 C 913.03 154.55 1106.75 141.03 1300.48 127.60 C 1300.54 207.19 1300.48 286.78 1300.51 366.37 C 1500.68 365.83 1700.84 365.07 1901.01 364.64 C 1900.99 486.14 1901.00 607.63 1901.00 729.13 C 1505.93 695.99 1110.83 663.02 715.77 629.77 C 678.46 680.23 629.55 722.24 573.30 750.23 C 509.62 782.36 437.10 796.48 366.01 791.01 C 298.77 786.17 232.99 763.47 176.89 726.14 C 121.91 689.54 76.16 639.10 45.44 580.60 C 16.25 525.38 0.66 463.16 0.00 400.72 L 0.00 385.59 C 0.55 378.04 0.70 370.48 1.40 362.94 C 8.02 280.44 41.71 200.45 95.90 137.92 C 136.14 91.20 187.34 53.95 244.36 30.44 M 317.95 17.11 C 277.78 25.31 238.95 40.01 203.41 60.45 C 146.98 92.79 98.96 139.60 65.17 195.17 C 41.41 234.07 24.67 277.25 15.99 322.00 C 0.45 401.50 10.42 485.85 44.78 559.27 C 61.24 594.72 83.17 627.60 109.45 656.52 C 156.53 708.42 217.91 747.25 285.11 767.18 C 369.29 792.40 462.08 787.89 543.29 754.20 C 607.16 727.95 663.65 684.14 705.13 628.94 C 699.58 628.45 694.02 628.06 688.49 627.50 C 680.72 637.03 672.72 646.37 664.15 655.18 C 619.13 702.03 561.61 736.69 499.16 754.62 C 451.51 768.37 401.11 772.25 351.87 766.53 C 278.10 758.02 207.22 726.57 151.32 677.71 C 98.44 631.88 58.87 570.91 38.80 503.86 C 16.74 430.67 17.87 350.66 42.13 278.17 C 55.17 239.18 74.66 202.34 99.70 169.72 C 132.06 127.59 173.35 92.27 220.27 67.28 C 255.80 48.31 294.42 35.09 334.17 28.51 C 399.61 17.67 467.99 24.24 529.89 48.25 C 593.85 72.72 650.52 115.46 692.11 169.81 C 697.72 169.47 703.32 169.04 708.93 168.67 C 661.18 102.94 592.35 52.77 514.96 27.93 C 451.68 7.43 383.10 3.80 317.95 17.11 M 276.87 52.17 C 235.11 66.61 196.04 88.78 162.19 117.19 C 125.07 148.29 94.18 186.83 72.04 229.91 C 53.97 264.97 41.69 303.01 35.89 342.03 C 35.32 345.99 35.81 349.98 35.79 353.96 C 36.26 382.29 36.26 410.63 35.78 438.96 C 35.79 442.62 35.36 446.29 35.81 449.94 C 44.12 506.82 66.38 561.57 99.94 608.23 C 140.84 665.40 198.60 710.35 264.18 735.71 C 344.05 766.91 435.03 768.42 515.92 740.00 C 578.94 718.08 635.54 678.28 677.72 626.61 C 594.28 619.70 510.85 612.65 427.42 605.68 C 427.20 609.86 427.37 614.08 426.83 618.24 C 426.49 614.02 426.34 609.78 426.09 605.56 C 423.84 605.38 421.59 605.18 419.35 605.01 C 419.28 607.37 419.27 609.74 419.24 612.11 C 418.81 609.75 418.73 607.34 418.70 604.95 C 411.34 604.34 403.98 603.69 396.62 603.13 C 396.21 618.77 396.16 634.44 395.51 650.08 C 394.44 634.57 394.60 619.01 394.15 603.49 C 393.91 603.21 393.44 602.65 393.21 602.37 C 392.38 625.35 392.65 648.40 391.42 671.37 C 390.31 648.48 390.35 625.55 390.07 602.65 C 389.55 602.62 388.52 602.56 388.00 602.52 C 387.67 606.82 387.90 611.14 387.50 615.44 C 387.22 611.06 387.15 606.68 387.17 602.30 C 382.53 601.89 377.89 601.60 373.26 601.13 C 372.79 624.75 372.82 648.41 371.82 672.00 C 370.90 648.44 370.81 624.86 370.72 601.29 C 369.32 601.01 367.93 600.73 366.54 600.49 C 366.25 611.03 366.24 621.58 365.52 632.10 C 364.86 621.55 364.81 610.98 364.61 600.42 C 362.82 600.26 361.04 600.11 359.26 599.97 C 358.90 617.31 358.57 634.64 358.16 651.98 C 358.16 655.08 357.92 658.18 357.40 661.25 C 357.06 640.86 356.47 620.47 356.38 600.08 C 356.19 600.10 355.79 600.14 355.59 600.16 C 355.21 627.47 355.62 654.85 353.81 682.11 C 352.40 654.53 352.60 626.91 352.23 599.30 L 350.57 599.34 C 350.39 607.17 350.34 615.00 350.01 622.83 C 349.51 614.94 349.51 607.03 349.36 599.13 C 348.68 599.08 347.32 598.97 346.64 598.92 C 346.50 606.63 346.36 614.34 346.17 622.05 C 345.40 614.33 345.74 606.55 345.39 598.81 C 343.63 598.65 341.87 598.50 340.12 598.35 C 339.88 635.61 339.69 672.88 338.52 710.11 C 337.25 701.17 337.52 692.09 337.20 683.08 C 336.72 654.74 336.49 626.40 336.39 598.06 C 333.67 597.82 330.96 597.60 328.25 597.37 C 327.78 632.01 328.21 666.69 326.46 701.30 C 325.93 693.86 325.72 686.41 325.53 678.96 C 325.07 651.70 324.81 624.44 324.73 597.18 C 323.21 596.98 321.68 596.80 320.16 596.64 C 319.64 623.48 320.23 650.38 318.46 677.18 C 317.19 650.11 317.53 622.99 316.98 595.91 L 316.31 596.77 C 315.51 622.85 316.48 649.03 314.43 675.07 C 313.56 648.76 313.33 622.43 313.24 596.11 C 310.32 595.86 307.40 595.62 304.48 595.39 C 304.30 622.28 304.29 649.18 303.29 676.06 C 303.24 678.49 302.89 680.91 302.42 683.30 C 302.76 678.19 302.31 673.08 302.19 667.97 C 301.53 643.68 301.59 619.39 301.22 595.10 C 298.60 594.88 295.99 594.66 293.37 594.46 C 293.39 462.14 293.36 329.82 293.39 197.50 C 296.01 197.33 298.63 197.14 301.26 196.95 C 301.71 167.92 301.39 138.87 302.84 109.86 C 303.20 112.21 303.29 114.58 303.37 116.96 C 304.26 143.54 304.34 170.14 304.48 196.73 C 307.40 196.53 310.33 196.33 313.25 196.12 C 313.30 170.00 313.66 143.87 314.39 117.76 C 315.24 122.79 315.19 127.90 315.39 132.99 C 315.95 154.09 315.92 175.21 316.25 196.32 C 317.68 195.32 316.93 193.40 317.14 191.97 C 317.41 166.57 317.36 141.16 318.46 115.78 C 319.59 127.48 319.43 139.26 319.70 151.00 C 319.88 165.88 320.04 180.76 320.12 195.65 C 321.66 195.54 323.20 195.44 324.75 195.35 C 325.07 160.49 324.73 125.61 326.49 90.79 C 328.20 125.52 327.82 160.30 328.25 195.06 C 330.95 194.90 333.66 194.72 336.36 194.53 C 336.54 164.35 336.74 134.16 337.31 103.98 C 337.62 96.91 337.57 89.79 338.53 82.76 C 339.82 119.93 339.79 157.13 340.18 194.32 C 341.95 194.15 343.73 194.01 345.51 193.84 C 345.40 185.75 346.35 177.73 346.47 169.66 C 346.98 177.70 346.32 185.76 346.77 193.80 C 347.45 193.75 348.80 193.64 349.48 193.58 C 349.69 185.71 349.50 177.81 350.20 169.97 C 350.44 177.82 350.51 185.68 350.75 193.54 L 352.23 193.46 C 352.75 166.01 352.16 138.50 354.00 111.09 C 355.49 138.31 355.31 165.61 355.58 192.86 C 355.79 192.87 356.19 192.88 356.39 192.89 C 356.73 172.53 356.54 152.15 357.84 131.83 C 359.03 152.16 358.86 172.58 359.27 192.95 C 361.05 192.81 362.83 192.68 364.61 192.56 C 364.64 181.63 365.21 170.72 365.48 159.81 C 366.83 170.62 366.27 181.57 366.67 192.45 C 368.03 191.97 369.43 191.84 370.85 192.05 C 370.82 169.69 370.78 147.29 372.02 124.95 C 372.94 147.27 372.85 169.63 373.26 191.96 C 377.97 191.51 382.71 191.38 387.43 190.96 C 387.42 187.59 387.23 184.21 387.40 180.84 C 387.78 184.29 387.83 187.77 388.28 191.22 L 390.04 190.61 C 390.50 168.66 390.27 146.69 391.50 124.77 C 392.88 146.64 392.62 168.58 393.04 190.49 L 394.24 190.55 C 394.62 175.98 394.44 161.38 395.51 146.84 C 396.39 161.31 396.38 175.83 396.63 190.33 C 404.15 189.82 411.68 189.32 419.19 188.75 C 419.27 187.79 419.41 185.88 419.49 184.93 C 419.59 186.19 419.68 187.47 419.74 188.74 C 421.91 188.58 424.08 188.43 426.26 188.29 C 426.47 184.88 426.61 181.47 427.00 178.07 C 427.39 181.43 427.44 184.81 427.53 188.19 C 512.17 182.32 596.81 176.46 681.45 170.56 C 636.84 114.03 575.15 71.14 506.47 49.38 C 432.29 25.64 350.46 26.61 276.87 52.17 M 922.91 164.13 C 715.82 177.93 508.69 191.42 301.60 205.37 C 301.66 332.52 301.60 459.66 301.63 586.81 C 832.05 629.54 1362.46 672.25 1892.87 715.07 C 1892.88 602.71 1892.87 490.36 1892.88 378.00 C 1692.61 377.90 1492.34 377.95 1292.07 377.93 C 1292.05 298.51 1292.07 219.10 1292.06 139.69 C 1169.01 147.82 1045.97 156.01 922.91 164.13 Z" />
<path fill="#000000" opacity="1.00" d=" M 275.50 118.88 C 277.19 148.88 276.73 178.96 277.24 209.00 C 277.95 326.00 277.94 443.03 277.38 560.03 C 276.93 598.07 277.21 636.12 275.61 674.14 C 274.42 663.48 274.56 652.73 274.27 642.03 C 272.85 527.01 272.92 411.97 273.17 296.94 C 273.40 248.27 273.58 199.60 274.28 150.94 C 274.47 140.25 274.63 129.54 275.50 118.88 Z" />
<path fill="#000000" opacity="1.00" d=" M 282.16 190.05 C 282.63 173.96 282.43 157.83 283.55 141.77 C 284.94 181.16 284.68 220.59 285.08 260.00 C 285.54 371.64 285.55 483.30 284.63 594.94 C 284.58 614.05 283.97 633.16 283.65 652.26 C 282.93 648.54 282.81 644.76 282.77 640.99 C 281.27 569.63 281.31 498.25 281.24 426.88 C 280.29 410.91 281.09 394.90 280.79 378.91 C 280.61 375.32 281.09 371.76 281.24 368.19 C 281.27 308.81 281.28 249.43 282.16 190.05 Z" />
<path fill="#000000" opacity="1.00" d=" M 261.62 285.94 C 261.70 240.21 262.31 194.48 263.50 148.77 C 264.78 159.81 264.52 170.95 264.84 182.04 C 266.11 288.37 265.98 394.72 265.72 501.06 C 265.53 531.04 265.38 561.03 265.08 591.01 C 264.66 608.76 265.13 626.56 263.45 644.25 C 261.76 590.51 261.82 536.74 261.50 482.98 C 261.32 417.30 261.31 351.62 261.62 285.94 Z" />
<path fill="#000000" opacity="1.00" d=" M 247.72 174.32 C 247.85 174.30 248.11 174.26 248.24 174.24 C 249.75 207.13 249.39 240.07 249.87 272.99 C 250.26 364.98 250.33 456.98 249.63 548.97 C 249.33 568.67 249.36 588.37 248.67 608.06 C 248.42 612.13 248.51 616.26 247.57 620.26 C 246.15 565.84 245.93 511.40 245.63 456.97 C 245.63 392.98 245.39 328.99 246.13 265.00 C 246.12 234.77 247.05 204.55 247.72 174.32 Z" />
<path fill="#000000" opacity="1.00" d=" M 290.79 198.99 C 290.86 194.88 290.86 190.74 291.61 186.67 C 291.32 205.44 292.22 224.22 292.25 243.00 C 292.70 299.66 292.79 356.33 292.75 412.99 C 292.62 467.99 292.78 522.99 291.76 577.98 C 291.80 587.35 290.91 596.74 291.60 606.09 C 291.26 604.41 290.89 602.73 290.85 601.01 C 289.60 547.34 289.72 493.66 289.50 439.98 C 289.63 359.65 289.12 279.31 290.79 198.99 Z" />
<path fill="#000000" opacity="1.00" d=" M 240.47 188.81 C 241.87 229.85 241.77 270.92 242.23 311.98 C 242.54 399.68 242.54 487.38 241.25 575.06 C 241.07 584.39 240.95 593.74 240.08 603.04 C 238.97 586.70 239.10 570.28 238.66 553.91 C 237.92 493.62 237.84 433.33 237.87 373.03 C 238.09 319.02 237.86 264.99 239.38 210.99 C 239.80 203.60 239.30 196.13 240.47 188.81 Z" />
<path fill="#000000" opacity="1.00" d=" M 1116.76 198.05 C 1129.84 197.41 1142.92 196.70 1156.00 196.02 C 1156.00 239.47 1156.00 282.93 1156.00 326.39 C 1175.50 326.09 1195.01 325.87 1214.51 325.49 C 1214.47 316.67 1214.55 307.84 1214.46 299.02 C 1227.60 303.03 1240.64 307.39 1253.75 311.51 C 1253.75 333.92 1253.74 356.34 1253.75 378.75 C 1208.08 378.61 1162.40 378.64 1116.73 378.58 C 1116.78 318.40 1116.73 258.23 1116.76 198.05 Z" />
<path fill="#000000" opacity="1.00" d=" M 942.39 207.23 C 988.10 204.85 1033.81 202.41 1079.52 200.04 C 1079.47 259.57 1079.51 319.09 1079.50 378.62 C 1066.42 378.63 1053.33 378.61 1040.25 378.63 C 1040.24 366.04 1040.25 353.46 1040.25 340.88 C 1020.70 341.00 1001.16 341.22 981.62 341.53 C 981.62 353.89 981.62 366.26 981.62 378.62 C 968.54 378.62 955.46 378.62 942.38 378.62 C 942.38 321.49 942.36 264.36 942.39 207.23 M 981.75 254.78 C 981.74 267.11 981.76 279.44 981.74 291.77 C 1001.24 291.37 1020.74 290.77 1040.25 290.29 C 1040.25 277.72 1040.25 265.16 1040.25 252.60 C 1020.75 253.36 1001.25 254.10 981.75 254.78 Z" />
<path fill="#000000" opacity="1.00" d=" M 220.45 205.95 C 221.57 216.58 221.63 227.29 221.86 237.98 C 223.14 326.98 223.07 416.00 222.47 505.01 C 221.94 532.13 222.47 559.30 220.57 586.37 C 219.60 579.32 219.77 572.17 219.47 565.07 C 218.23 528.49 218.87 491.89 218.49 455.31 C 218.23 474.87 218.58 494.44 218.16 514.01 C 217.18 527.36 217.32 540.78 216.55 554.16 C 215.30 539.47 215.86 524.69 214.74 510.00 C 214.71 496.36 214.55 482.71 214.54 469.06 C 214.14 491.68 214.47 514.29 214.08 536.91 C 213.72 548.03 214.04 559.22 212.51 570.27 C 211.24 553.88 211.38 537.40 210.92 520.97 C 210.04 456.32 210.17 391.66 210.37 327.00 C 210.51 291.92 211.05 256.84 212.48 221.78 C 213.57 228.43 213.56 235.19 213.79 241.90 C 214.60 269.92 214.15 297.94 214.50 325.95 C 214.54 311.98 214.70 298.01 214.76 284.04 C 215.85 269.03 215.55 253.94 216.55 238.92 C 217.61 252.26 217.21 265.68 218.28 279.01 C 218.20 291.37 218.47 303.73 218.46 316.08 C 218.59 300.40 218.89 284.71 218.63 269.02 C 218.95 247.99 219.55 226.96 220.45 205.95 Z" />
<path fill="#000000" opacity="1.00" d=" M 865.91 211.24 C 878.98 210.57 892.05 209.84 905.12 209.21 C 905.06 265.70 905.26 322.18 905.03 378.66 C 891.97 378.48 878.91 378.85 865.87 378.45 C 865.91 322.72 865.83 266.98 865.91 211.24 Z" />
<path fill="#000000" opacity="1.00" d=" M 255.44 211.95 C 255.97 214.56 256.18 217.23 256.19 219.90 C 257.63 280.58 257.40 341.29 257.50 401.98 C 257.36 457.67 257.64 513.37 256.16 569.04 C 256.08 573.11 255.68 577.16 255.49 581.23 C 254.49 537.48 254.24 493.72 254.13 449.96 C 254.16 387.32 253.93 324.67 254.62 262.04 C 254.69 245.34 255.62 228.64 255.44 211.95 Z" />
<path fill="#000000" opacity="1.00" d=" M 691.61 220.42 C 737.28 217.97 782.95 215.62 828.61 213.21 C 828.61 232.94 828.66 252.66 828.59 272.39 C 815.51 276.65 802.49 281.06 789.42 285.34 C 789.31 277.55 789.41 269.77 789.37 261.98 C 769.88 262.73 750.38 263.49 730.89 264.16 C 730.86 286.98 730.88 309.80 730.88 332.63 C 750.37 332.46 769.86 332.01 789.35 331.84 C 789.41 324.04 789.34 316.24 789.39 308.44 C 802.47 312.10 815.55 315.74 828.63 319.42 C 828.61 339.11 828.64 358.81 828.62 378.50 C 782.95 378.49 737.29 378.50 691.62 378.50 C 691.61 325.81 691.64 273.11 691.61 220.42 Z" />
<path fill="#000000" opacity="1.00" d=" M 517.24 229.54 C 562.95 227.17 608.66 224.76 654.37 222.35 C 654.38 274.40 654.37 326.45 654.38 378.50 C 608.69 378.53 563.00 378.44 517.31 378.54 C 517.16 328.87 517.30 279.21 517.24 229.54 M 556.52 270.71 C 556.49 292.23 556.49 313.76 556.52 335.28 C 576.05 334.88 595.59 334.70 615.12 334.35 C 615.12 312.40 615.13 290.45 615.12 268.50 C 595.59 269.27 576.05 269.98 556.52 270.71 Z" />
<path fill="#000000" opacity="1.00" d=" M 342.98 238.72 C 388.68 236.29 434.38 233.90 480.08 231.51 C 476.77 245.66 473.55 259.82 470.24 273.97 C 440.92 275.00 411.59 276.15 382.27 277.23 C 382.24 280.57 382.25 283.91 382.25 287.25 C 414.83 286.12 447.41 285.00 480.00 283.97 C 480.00 315.44 480.00 346.91 480.00 378.37 C 434.32 378.38 388.63 378.38 342.95 378.37 C 346.24 365.01 349.47 351.63 352.78 338.27 C 382.10 337.80 411.42 337.33 440.75 337.00 C 440.75 333.57 440.75 330.15 440.74 326.72 C 408.16 327.32 375.58 327.97 343.00 328.51 C 342.98 298.58 343.03 268.65 342.98 238.72 Z" />
<path fill="#000000" opacity="1.00" d=" M 243.99 240.01 C 245.15 263.62 245.06 287.28 245.24 310.91 C 245.50 377.59 245.55 444.28 245.04 510.95 C 244.84 524.62 244.56 538.30 244.00 551.96 C 242.77 527.00 243.02 501.99 242.74 477.01 C 242.56 410.67 242.47 344.33 243.01 277.99 C 243.29 265.33 243.51 252.66 243.99 240.01 Z" />
<path fill="#000000" opacity="1.00" d=" M 228.48 256.69 C 229.92 298.76 229.77 340.88 229.87 382.97 C 229.85 434.05 230.04 485.16 228.50 536.21 C 226.62 506.86 227.22 477.43 226.76 448.04 C 226.73 414.68 226.76 381.32 226.75 347.97 C 227.13 317.54 226.72 287.08 228.48 256.69 Z" />
<path fill="#000000" opacity="1.00" d=" M 278.89 285.00 C 279.21 278.32 279.22 271.64 279.49 264.96 C 280.43 308.95 280.31 352.97 280.18 396.97 C 280.31 440.07 280.38 483.18 279.52 526.27 C 278.29 499.88 278.68 473.44 278.37 447.03 C 278.46 393.02 278.11 339.01 278.89 285.00 Z" />
<path fill="#000000" opacity="1.00" d=" M 80.50 317.11 C 81.54 300.77 81.85 284.39 83.03 268.05 C 84.28 283.00 84.30 298.03 84.71 313.02 C 84.63 318.36 85.27 323.73 84.45 329.04 C 84.80 331.71 85.63 334.33 85.62 337.09 C 84.85 319.05 85.66 300.97 86.97 282.96 C 88.66 303.92 88.45 324.99 88.87 346.00 C 89.06 382.66 89.14 419.32 88.74 455.97 C 88.57 468.68 88.40 481.40 87.75 494.10 C 87.40 499.43 87.60 504.82 86.48 510.08 C 86.19 496.39 85.27 482.71 85.23 469.01 C 84.95 464.62 86.08 460.28 85.58 455.89 C 85.58 456.80 85.58 458.62 85.57 459.53 C 83.44 461.99 85.04 465.18 84.89 468.03 C 84.64 486.71 84.08 505.40 82.97 524.05 C 81.74 511.80 81.81 499.46 81.22 487.17 C 80.86 483.15 80.49 479.13 80.51 475.09 C 80.21 478.73 80.52 482.38 80.30 486.02 C 79.25 491.28 79.45 496.67 79.18 502.00 C 77.90 491.23 78.47 480.33 77.40 469.53 L 76.55 469.69 C 75.42 445.14 75.73 420.55 75.54 395.97 C 75.79 371.46 75.32 346.92 76.69 322.44 L 77.39 322.59 C 78.50 312.01 78.00 301.30 79.27 290.74 C 79.43 299.55 80.37 308.30 80.50 317.11 Z" />
<path fill="#000000" opacity="1.00" d=" M 184.42 286.94 C 184.71 282.57 184.53 278.15 185.44 273.84 C 187.17 307.89 187.15 341.99 187.43 376.06 C 187.49 408.38 187.43 440.69 186.88 472.99 C 186.74 488.07 186.11 503.16 185.07 518.20 C 183.59 501.87 183.69 485.43 183.28 469.05 C 182.94 436.35 182.59 403.65 182.80 370.95 C 183.21 342.95 182.94 314.92 184.42 286.94 Z" />
<path fill="#000000" opacity="1.00" d=" M 196.75 274.75 C 197.17 276.79 197.31 278.88 197.38 280.96 C 199.02 319.30 198.57 357.67 198.88 396.03 C 198.52 435.05 199.14 474.09 197.18 513.08 C 197.08 514.79 196.73 516.47 196.39 518.15 C 196.18 499.45 195.22 480.74 195.25 462.03 C 194.84 430.33 195.05 398.63 195.00 366.93 C 195.07 336.19 195.32 305.46 196.75 274.75 Z" />
<path fill="#000000" opacity="1.00" d=" M 287.51 284.90 C 287.80 298.26 287.93 311.64 287.62 325.01 C 288.06 370.33 288.12 415.65 287.62 460.96 C 287.69 476.64 287.94 492.33 287.45 508.00 C 287.25 497.67 287.29 487.35 287.25 477.02 C 286.12 453.72 286.79 430.37 286.38 407.05 C 286.35 385.02 286.59 363.00 286.64 340.98 C 286.96 333.66 286.40 326.33 287.14 319.03 C 287.36 307.65 287.16 296.27 287.51 284.90 Z" />
<path fill="#000000" opacity="1.00" d=" M 223.25 346.97 C 223.39 326.89 223.35 306.78 224.53 286.72 C 226.06 340.81 225.59 394.93 225.50 449.03 C 225.38 468.05 225.10 487.07 224.50 506.07 C 223.03 480.72 223.48 455.32 223.12 429.94 C 223.17 402.28 223.02 374.62 223.25 346.97 Z" />
<path fill="#000000" opacity="1.00" d=" M 267.08 342.00 C 267.18 326.56 266.96 311.10 267.58 295.67 C 268.56 363.11 268.59 430.56 267.48 497.99 C 266.78 446.00 266.55 394.00 267.08 342.00 Z" />
<path fill="#000000" opacity="1.00" d=" M 169.47 303.61 C 171.88 335.31 171.05 367.16 171.32 398.94 C 171.21 429.06 171.53 459.21 169.51 489.28 C 167.94 476.93 168.15 464.42 167.76 452.00 C 167.74 421.69 167.36 391.37 167.77 361.06 C 167.51 341.91 167.81 322.71 169.47 303.61 Z" />
<path fill="#000000" opacity="1.00" d=" M 204.45 303.68 C 205.95 317.38 205.47 331.22 205.85 344.98 C 206.07 379.33 206.09 413.69 205.84 448.03 C 205.51 461.52 205.87 475.08 204.36 488.50 C 203.76 461.66 203.37 434.82 203.50 407.98 C 203.44 373.21 203.43 338.43 204.45 303.68 Z" />
<path fill="#000000" opacity="1.00" d=" M 187.56 408.97 C 187.81 374.60 186.94 340.17 189.07 305.84 C 190.93 335.19 190.25 364.62 190.62 394.01 C 190.29 424.98 190.97 456.00 189.00 486.93 C 187.33 460.99 187.81 434.96 187.56 408.97 Z" />
<path fill="#000000" opacity="1.00" d=" M 73.34 306.43 C 75.55 336.87 75.43 367.43 75.45 397.93 C 75.48 427.34 75.36 456.76 73.30 486.11 C 72.25 481.16 72.45 476.07 72.08 471.05 C 71.00 444.04 71.15 417.01 71.00 389.98 C 71.48 362.14 70.62 334.19 73.34 306.43 Z" />
<path fill="#000000" opacity="1.00" d=" M 161.44 306.53 C 163.10 318.93 162.92 331.52 163.32 344.01 C 163.27 376.33 163.69 408.65 163.18 440.96 C 163.60 456.05 162.60 471.14 161.56 486.18 C 160.55 479.18 160.55 472.08 160.19 465.02 C 159.42 438.70 159.39 412.37 159.37 386.05 C 159.64 359.54 159.40 332.99 161.44 306.53 Z" />
<path fill="#000000" opacity="1.00" d=" M 53.46 307.67 C 53.90 309.73 54.19 311.82 54.31 313.92 C 55.88 336.58 55.83 359.31 56.00 382.01 C 55.77 416.19 56.73 450.47 53.58 484.56 C 51.67 471.11 51.88 457.45 51.54 443.90 C 51.27 454.66 50.73 465.44 49.46 476.13 C 47.46 453.81 47.67 431.38 47.37 408.99 C 47.51 378.21 46.97 347.37 49.50 316.66 C 51.09 327.03 51.09 337.59 51.56 348.07 C 51.60 334.58 52.36 321.11 53.46 307.67 Z" />
<path fill="#000000" opacity="1.00" d=" M 141.94 307.84 C 144.48 330.45 143.90 353.28 144.36 376.00 C 144.39 404.69 144.48 433.39 143.55 462.08 C 143.02 469.70 142.88 477.38 141.69 484.94 C 140.54 470.96 139.87 456.93 139.55 442.91 C 139.27 453.92 139.38 464.96 137.87 475.90 C 136.02 456.69 135.95 437.37 135.91 418.09 C 136.06 403.34 136.06 388.58 135.91 373.83 C 135.96 354.88 135.98 335.86 138.06 317.00 C 139.57 327.95 139.24 339.00 139.52 350.01 C 139.85 335.94 140.62 321.86 141.94 307.84 Z" />
<path fill="#000000" opacity="1.00" d=" M 118.49 311.80 C 119.84 327.47 120.44 343.21 120.47 358.94 C 120.74 345.11 120.56 331.20 122.41 317.47 C 123.78 330.93 123.96 344.48 124.23 358.01 C 124.44 377.67 124.66 397.35 124.37 417.02 C 124.33 436.46 124.06 455.92 122.36 475.31 C 120.37 461.36 120.80 447.19 120.50 433.13 C 120.60 448.90 119.52 464.63 118.47 480.35 C 117.25 474.96 117.42 469.39 116.97 463.92 C 116.32 447.94 116.13 431.94 116.12 415.95 C 115.42 402.67 115.53 389.34 116.13 376.06 C 116.35 354.64 115.96 333.11 118.49 311.80 Z" />
<path fill="#000000" opacity="1.00" d=" M 108.75 346.02 C 108.94 335.25 109.31 324.46 110.53 313.76 C 112.69 336.10 112.22 358.60 112.63 381.02 C 112.52 413.78 112.99 446.59 110.57 479.28 C 108.90 466.94 109.00 454.45 108.66 442.03 C 108.24 410.03 108.21 378.02 108.75 346.02 Z" />
<path fill="#000000" opacity="1.00" d=" M 94.49 314.77 C 95.66 319.06 95.30 323.55 95.61 327.95 C 96.60 355.28 96.46 382.63 96.50 409.98 C 96.26 428.33 96.44 446.70 95.51 465.05 C 95.26 469.46 95.29 473.92 94.42 478.28 C 93.36 455.87 93.09 433.43 93.13 411.00 C 93.18 378.92 92.78 346.81 94.49 314.77 Z" />
<path fill="#000000" opacity="1.00" d=" M 271.42 314.79 C 272.34 368.93 272.09 423.10 271.55 477.24 C 270.63 423.10 270.90 368.94 271.42 314.79 Z" />
<path fill="#000000" opacity="1.00" d=" M 171.68 368.04 C 172.07 351.00 171.80 333.89 173.56 316.92 C 175.36 350.92 174.76 384.98 174.87 419.01 C 174.92 437.79 174.38 456.56 173.65 475.33 C 173.08 472.60 172.81 469.84 172.71 467.07 C 171.23 434.08 171.79 401.05 171.68 368.04 Z" />
<path fill="#000000" opacity="1.00" d=" M 165.42 317.88 C 166.92 331.52 166.55 345.26 167.29 358.94 C 167.22 397.39 168.29 435.90 165.48 474.27 C 163.94 455.90 163.70 437.44 163.60 419.02 C 163.66 385.30 163.05 351.54 165.42 317.88 Z" />
<path fill="#000000" opacity="1.00" d=" M 180.47 354.98 C 180.81 345.55 180.46 336.07 181.60 326.69 C 182.01 358.46 182.57 390.24 182.13 422.01 C 182.25 436.71 181.02 451.41 181.68 466.10 C 181.28 463.89 180.95 461.67 180.80 459.44 C 179.95 424.63 179.53 389.80 180.47 354.98 Z" />
<path fill="#000000" opacity="1.00" d=" M 200.29 352.94 C 200.38 344.26 200.80 335.59 200.34 326.92 C 201.34 332.91 201.15 338.99 201.27 345.04 C 201.77 374.35 201.98 403.66 201.41 432.97 C 201.25 443.74 201.25 454.52 200.47 465.27 C 200.11 427.84 199.45 390.38 200.29 352.94 Z" />
<path fill="#000000" opacity="1.00" d=" M 231.76 359.86 C 232.60 348.85 231.99 337.79 232.55 326.77 C 233.05 345.18 232.45 363.59 232.87 382.01 C 232.95 401.68 232.76 421.36 232.57 441.03 C 232.19 449.37 233.10 457.70 232.48 466.04 C 231.30 430.67 231.59 395.25 231.76 359.86 Z" />
<path fill="#000000" opacity="1.00" d=" M 259.55 334.03 C 259.90 354.01 259.57 373.99 260.13 393.96 C 259.80 415.66 259.84 437.37 259.50 459.07 C 258.95 430.04 259.40 401.00 259.16 371.96 C 259.30 359.32 259.17 346.67 259.55 334.03 Z" />
<path fill="#000000" opacity="1.00" d=" M 102.39 336.85 C 103.51 345.20 103.23 353.65 103.52 362.06 C 104.32 393.18 103.93 424.34 102.49 455.44 C 101.56 432.96 101.29 410.45 101.38 387.96 C 101.51 370.92 102.27 353.89 102.39 336.85 Z" />
<path fill="#000000" opacity="1.00" d=" M 236.28 369.96 C 236.30 359.29 236.18 348.62 236.51 337.95 C 237.04 362.61 236.44 387.28 236.63 411.95 C 236.15 426.33 237.12 440.72 236.45 455.10 C 236.10 446.03 236.78 436.93 235.76 427.90 C 235.94 408.59 234.97 389.24 236.28 369.96 Z" />
<path fill="#000000" opacity="1.00" d=" M 60.48 433.16 C 59.60 401.69 59.93 370.18 61.54 338.76 C 62.77 354.13 62.66 369.56 62.88 384.97 C 62.83 408.02 63.08 431.09 61.55 454.10 C 60.54 447.17 60.75 440.14 60.48 433.16 Z" />
<path fill="#000000" opacity="1.00" d=" M 149.40 338.88 C 150.73 344.14 150.41 349.61 150.77 354.99 C 151.41 381.65 151.37 408.32 150.85 434.99 C 150.52 441.38 150.55 447.83 149.45 454.16 C 148.51 425.14 147.82 396.10 148.82 367.07 C 148.94 357.67 149.69 348.28 149.40 338.88 Z" />
<path fill="#000000" opacity="1.00" d=" M 64.60 436.97 C 63.67 404.93 63.81 372.84 65.49 340.83 C 66.87 372.18 66.97 403.61 65.91 434.98 C 65.74 440.70 65.51 446.41 65.55 452.14 C 64.60 447.14 64.82 442.03 64.60 436.97 Z" />
<path fill="#000000" opacity="1.00" d=" M 153.45 340.78 C 154.60 346.79 154.19 352.95 154.49 359.04 C 155.38 390.07 155.06 421.15 153.55 452.16 C 152.64 437.12 152.73 422.02 152.38 406.95 C 152.08 384.88 153.16 362.83 153.45 340.78 Z" />
<path fill="#000000" opacity="1.00" d=" M 208.45 342.05 C 209.65 378.06 209.39 414.12 208.54 450.14 C 207.89 431.44 208.27 412.73 208.00 394.02 C 208.33 376.70 208.03 359.37 208.45 342.05 Z" />
<path fill="#000000" opacity="1.00" d=" M 98.55 445.29 C 97.33 412.52 97.68 379.65 98.54 346.87 C 100.25 379.64 99.99 412.51 98.55 445.29 Z" />
<path fill="#000000" opacity="1.00" d=" M 114.47 346.87 C 115.73 366.20 115.34 385.60 115.25 404.96 C 115.51 418.66 114.88 432.36 114.49 446.05 C 112.56 413.03 113.03 379.90 114.47 346.87 Z" />
<path fill="#000000" opacity="1.00" d=" M 40.57 390.07 C 40.64 376.60 41.53 363.15 41.44 349.68 C 42.57 355.03 42.28 360.53 42.53 365.97 C 43.05 383.96 43.23 401.97 42.58 419.96 C 42.22 427.73 42.48 435.55 41.38 443.27 C 41.14 425.54 40.30 407.81 40.57 390.07 Z" />
<path fill="#000000" opacity="1.00" d=" M 129.48 367.02 C 129.85 361.19 129.35 355.26 130.57 349.50 C 130.78 371.00 131.91 392.51 131.09 414.01 C 131.03 423.71 130.15 433.41 130.50 443.11 C 129.37 439.17 129.71 435.05 129.49 431.02 C 128.79 409.69 128.64 388.35 129.48 367.02 Z" />
<path fill="#000000" opacity="1.00" d=" M 251.48 437.38 C 251.26 409.56 251.15 381.73 251.52 353.92 C 251.72 381.73 251.88 409.57 251.48 437.38 Z" />
<path fill="#000000" opacity="1.00" d=" M 90.35 356.68 C 90.96 360.08 91.21 363.53 91.17 366.98 C 91.58 385.65 91.62 404.32 91.19 422.98 C 91.20 427.36 90.86 431.72 90.43 436.08 C 90.65 415.70 89.87 395.31 90.43 374.92 C 90.51 368.84 90.85 362.75 90.35 356.68 Z" />
<path fill="#000000" opacity="1.00" d=" M 69.47 364.82 C 70.14 370.87 69.50 376.95 69.75 383.01 C 70.16 398.07 69.53 413.13 69.57 428.18 C 68.07 407.09 68.54 385.92 69.47 364.82 Z" />
<path fill="#000000" opacity="1.00" d=" M 157.47 428.02 C 156.88 406.93 156.73 385.79 157.58 364.70 C 158.39 385.80 158.53 406.93 157.47 428.02 Z" />
<path fill="#000000" opacity="1.00" d=" M 37.24 396.00 C 37.16 387.55 37.84 379.11 37.42 370.67 C 38.66 377.71 38.16 384.90 38.39 392.01 C 38.24 402.02 38.78 412.12 37.37 422.07 C 37.81 413.38 37.14 404.69 37.24 396.00 Z" />
<path fill="#000000" opacity="1.00" d=" M 126.50 370.80 C 126.84 384.18 126.78 397.60 126.61 411.00 C 126.69 414.38 126.96 417.79 126.44 421.16 C 125.36 404.39 125.32 387.57 126.50 370.80 Z" />
<path fill="#000000" opacity="1.00" d=" M 192.05 370.98 C 192.48 372.66 193.70 374.16 193.56 375.96 C 192.61 382.59 193.44 389.30 193.26 395.97 C 193.47 402.66 192.59 409.40 193.57 416.06 C 193.84 417.34 193.02 418.40 192.47 419.48 C 192.42 420.13 192.31 421.44 192.25 422.10 C 192.36 416.05 192.98 410.03 192.75 403.98 C 192.45 392.99 193.36 381.94 192.05 370.98 Z" />
<path fill="#000000" opacity="1.00" d=" M 45.49 373.87 C 46.36 388.92 46.36 404.00 45.49 419.05 C 45.11 404.00 45.10 388.92 45.49 373.87 Z" />
<path fill="#000000" opacity="1.00" d=" M 57.45 375.85 C 58.11 389.28 57.95 402.74 57.52 416.17 C 56.89 402.74 57.12 389.29 57.45 375.85 Z" />
<path fill="#000000" opacity="1.00" d=" M 134.05 380.10 C 134.76 390.43 133.89 400.81 134.51 411.14 C 134.21 409.86 133.94 408.57 133.69 407.28 C 133.53 398.23 133.34 389.14 134.05 380.10 Z" />
<path fill="#000000" opacity="1.00" d=" M 343.88 414.23 C 389.59 414.86 435.29 415.55 481.00 416.13 C 480.99 461.63 481.02 507.13 480.98 552.63 C 435.28 556.38 389.58 560.19 343.88 563.93 C 343.87 514.03 343.86 464.13 343.88 414.23 M 383.12 455.37 C 383.13 476.68 383.12 497.98 383.12 519.29 C 402.67 517.40 422.20 515.44 441.75 513.54 C 441.74 494.73 441.76 475.91 441.74 457.10 C 422.20 456.50 402.66 455.98 383.12 455.37 Z" />
<path fill="#000000" opacity="1.00" d=" M 518.26 565.61 C 518.27 515.96 518.20 466.30 518.30 416.64 C 531.37 416.97 544.46 416.88 557.54 417.32 C 557.45 467.63 557.52 517.93 557.50 568.24 C 544.42 567.36 531.34 566.50 518.26 565.61 Z" />
<path fill="#000000" opacity="1.00" d=" M 594.75 417.73 C 640.44 418.39 686.13 419.03 731.82 419.64 C 728.56 434.83 725.24 450.01 722.05 465.21 C 692.69 464.43 663.35 463.49 634.00 462.69 C 634.00 466.33 633.99 469.96 634.00 473.60 C 666.59 474.75 699.18 475.69 731.77 476.89 C 731.74 511.22 731.74 545.55 731.76 579.88 C 686.07 576.80 640.38 573.85 594.70 570.67 C 598.01 556.27 601.24 541.84 604.52 527.43 C 633.85 528.94 663.18 530.47 692.51 531.99 C 692.50 528.26 692.50 524.53 692.49 520.80 C 659.91 519.27 627.33 517.71 594.75 516.11 C 594.75 483.32 594.75 450.52 594.75 417.73 Z" />
<path fill="#000000" opacity="1.00" d=" M 769.00 420.16 C 814.71 420.87 860.42 421.38 906.13 422.14 C 906.12 438.30 906.12 454.46 906.12 470.61 C 889.82 470.11 873.51 469.62 857.21 469.19 C 857.30 508.88 857.23 548.58 857.25 588.27 C 844.18 587.39 831.10 586.50 818.03 585.67 C 817.96 546.45 818.02 507.24 818.00 468.03 C 801.68 467.56 785.36 467.06 769.04 466.63 C 768.95 451.14 769.02 435.65 769.00 420.16 Z" />
<path fill="#000000" opacity="1.00" d=" M 943.35 593.97 C 943.42 536.85 943.34 479.72 943.39 422.60 C 989.05 423.24 1034.71 423.94 1080.37 424.48 C 1080.38 484.04 1080.38 543.61 1080.37 603.17 C 1067.28 602.32 1054.20 601.41 1041.12 600.57 C 1041.13 587.97 1041.13 575.37 1041.12 562.77 C 1021.62 561.63 1002.12 560.61 982.62 559.50 C 982.62 571.88 982.63 584.27 982.62 596.65 C 969.53 595.73 956.43 594.97 943.35 593.97 M 982.63 472.85 C 982.62 485.18 982.63 497.51 982.62 509.84 C 1002.12 510.61 1021.62 511.44 1041.13 512.17 C 1041.14 499.64 1041.09 487.10 1041.15 474.57 C 1021.64 473.89 1002.13 473.39 982.63 472.85 Z" />
<path fill="#000000" opacity="1.00" d=" M 1117.62 425.03 C 1130.39 425.29 1143.17 425.33 1155.94 425.63 C 1157.15 425.54 1157.99 426.51 1158.92 427.16 C 1177.76 442.19 1196.60 457.22 1215.50 472.17 C 1215.49 456.92 1215.52 441.68 1215.49 426.43 C 1228.58 426.64 1241.68 426.70 1254.77 427.03 C 1254.73 489.63 1254.74 552.24 1254.76 614.84 C 1241.67 613.97 1228.59 613.10 1215.50 612.21 C 1215.46 586.01 1215.58 559.81 1215.44 533.61 C 1195.86 517.85 1176.44 501.88 1156.90 486.06 C 1156.84 526.81 1156.89 567.55 1156.87 608.29 C 1143.78 607.42 1130.69 606.57 1117.60 605.64 C 1117.65 545.43 1117.61 485.23 1117.62 425.03 Z" />
<path fill="#000000" opacity="1.00" d=" M 1292.00 427.48 C 1337.65 428.10 1383.31 428.84 1428.96 429.35 C 1429.05 452.87 1428.98 476.39 1429.00 499.90 C 1415.91 504.10 1402.84 508.36 1389.75 512.55 C 1389.74 503.25 1389.76 493.95 1389.74 484.64 C 1370.24 484.14 1350.74 483.48 1331.25 482.98 C 1331.25 510.33 1331.25 537.67 1331.25 565.01 C 1350.74 566.04 1370.24 567.06 1389.75 568.04 C 1389.73 558.77 1389.78 549.51 1389.72 540.24 C 1402.88 545.33 1415.89 550.77 1429.00 556.00 C 1429.00 579.50 1429.00 603.00 1429.00 626.49 C 1383.33 623.41 1337.64 620.43 1291.97 617.30 C 1292.04 554.03 1291.98 490.76 1292.00 427.48 Z" />
<path fill="#000000" opacity="1.00" d=" M 1466.24 430.01 C 1479.33 430.05 1492.42 430.26 1505.50 430.53 C 1505.50 497.55 1505.48 564.57 1505.51 631.60 C 1492.42 630.74 1479.33 629.85 1466.24 628.97 C 1466.26 562.65 1466.25 496.33 1466.24 430.01 Z" />
<path fill="#000000" opacity="1.00" d=" M 1542.88 430.98 C 1555.53 431.20 1568.20 431.35 1580.86 431.52 C 1582.15 431.32 1582.97 432.42 1583.91 433.15 C 1599.73 447.32 1615.62 461.42 1631.48 475.55 C 1634.52 478.15 1637.32 481.04 1640.59 483.38 C 1640.67 466.37 1640.60 449.36 1640.63 432.36 C 1653.71 432.54 1666.79 432.78 1679.87 432.88 C 1679.88 503.01 1679.87 573.14 1679.88 643.27 C 1666.79 642.35 1653.69 641.57 1640.60 640.59 C 1640.62 611.24 1640.67 581.89 1640.58 552.54 C 1621.05 534.90 1601.60 517.18 1582.13 499.48 C 1582.13 545.22 1582.12 590.97 1582.13 636.71 C 1569.04 635.85 1555.95 634.99 1542.88 634.09 C 1542.87 566.38 1542.87 498.68 1542.88 430.98 Z" />
<path fill="#000000" opacity="1.00" d=" M 1717.12 433.50 C 1762.81 434.03 1808.51 434.69 1854.20 435.41 C 1850.93 456.23 1847.65 477.05 1844.42 497.88 C 1815.08 497.05 1785.73 496.15 1756.39 495.34 C 1756.34 525.89 1756.42 556.43 1756.35 586.97 C 1775.85 588.10 1795.36 589.03 1814.87 590.04 C 1814.86 584.90 1814.88 579.77 1814.86 574.64 C 1801.85 574.04 1788.84 573.39 1775.83 572.79 C 1772.54 552.15 1769.29 531.49 1766.01 510.85 C 1795.39 511.78 1824.76 512.72 1854.13 513.75 C 1854.12 560.81 1854.13 607.86 1854.12 654.91 C 1808.46 651.84 1762.80 648.80 1717.14 645.75 C 1717.10 575.00 1717.14 504.25 1717.12 433.50 Z" />
</g>
<g id="#ffffffff">
<path fill="#ffffff" opacity="1.00" d=" M 317.95 17.11 C 383.10 3.80 451.68 7.43 514.96 27.93 C 592.35 52.77 661.18 102.94 708.93 168.67 C 703.32 169.04 697.72 169.47 692.11 169.81 C 650.52 115.46 593.85 72.72 529.89 48.25 C 467.99 24.24 399.61 17.67 334.17 28.51 C 294.42 35.09 255.80 48.31 220.27 67.28 C 173.35 92.27 132.06 127.59 99.70 169.72 C 74.66 202.34 55.17 239.18 42.13 278.17 C 17.87 350.66 16.74 430.67 38.80 503.86 C 58.87 570.91 98.44 631.88 151.32 677.71 C 207.22 726.57 278.10 758.02 351.87 766.53 C 401.11 772.25 451.51 768.37 499.16 754.62 C 561.61 736.69 619.13 702.03 664.15 655.18 C 672.72 646.37 680.72 637.03 688.49 627.50 C 694.02 628.06 699.58 628.45 705.13 628.94 C 663.65 684.14 607.16 727.95 543.29 754.20 C 462.08 787.89 369.29 792.40 285.11 767.18 C 217.91 747.25 156.53 708.42 109.45 656.52 C 83.17 627.60 61.24 594.72 44.78 559.27 C 10.42 485.85 0.45 401.50 15.99 322.00 C 24.67 277.25 41.41 234.07 65.17 195.17 C 98.96 139.60 146.98 92.79 203.41 60.45 C 238.95 40.01 277.78 25.31 317.95 17.11 Z" />
</g>
<g id="#00000040">
<path fill="#000000" opacity="0.25" d=" M 1901.01 364.64 L 1902.00 364.64 L 1902.00 729.21 L 1901.00 729.13 C 1901.00 607.63 1900.99 486.14 1901.01 364.64 Z" />
</g>
<g id="#bfbfbfff">
<path fill="#bfbfbf" opacity="1.00" d=" M 134.05 380.10 C 133.26 377.64 133.06 374.88 135.91 373.83 C 136.06 388.58 136.06 403.34 135.91 418.09 C 135.16 417.39 134.40 416.70 133.65 416.01 C 133.15 413.13 132.52 410.11 133.69 407.28 C 133.94 408.57 134.21 409.86 134.51 411.14 C 133.89 400.81 134.76 390.43 134.05 380.10 Z" />
<path fill="#bfbfbf" opacity="1.00" d=" M 177.22 381.60 C 178.29 383.19 177.96 385.19 178.03 387.01 C 177.89 394.90 178.18 402.80 177.87 410.69 C 177.67 410.28 177.27 409.47 177.07 409.07 C 177.01 399.92 176.79 390.74 177.22 381.60 Z" />
</g>
<g id="#a7a7a7ff">
<path fill="#a7a7a7" opacity="1.00" d=" M 106.45 382.93 C 107.56 391.02 106.78 399.22 106.98 407.35 L 106.00 407.36 C 106.20 399.22 105.52 391.04 106.45 382.93 Z" />
</g>
</svg>
